<mxfile host="app.diagrams.net" agent="Mozilla/5.0 (Windows NT 10.0; Win64; x64; rv:131.0) Gecko/20100101 Firefox/131.0" version="26.0.6">
  <diagram name="Page-1" id="w8cEdWqZR_Wx36k4Sc1c">
    <mxGraphModel dx="724" dy="397" grid="1" gridSize="10" guides="1" tooltips="1" connect="1" arrows="1" fold="1" page="1" pageScale="1" pageWidth="827" pageHeight="1169" math="0" shadow="0">
      <root>
        <mxCell id="0" />
        <mxCell id="1" parent="0" />
        <mxCell id="KM6Y3mVUqvjQru7paMrh-1" value="u : Użytkownik" style="text;html=1;align=center;verticalAlign=middle;whiteSpace=wrap;rounded=0;" vertex="1" parent="1">
          <mxGeometry width="200" height="30" as="geometry" />
        </mxCell>
        <mxCell id="KM6Y3mVUqvjQru7paMrh-2" value="wykaz_rowerow : Wykaz Rowerów" style="text;html=1;align=center;verticalAlign=middle;whiteSpace=wrap;rounded=0;" vertex="1" parent="1">
          <mxGeometry x="200" width="200" height="30" as="geometry" />
        </mxCell>
        <mxCell id="KM6Y3mVUqvjQru7paMrh-3" value="r : Rower" style="text;html=1;align=center;verticalAlign=middle;whiteSpace=wrap;rounded=0;" vertex="1" parent="1">
          <mxGeometry x="400" width="200" height="30" as="geometry" />
        </mxCell>
        <mxCell id="KM6Y3mVUqvjQru7paMrh-4" value="w : Wypożyczenie" style="text;html=1;align=center;verticalAlign=middle;whiteSpace=wrap;rounded=0;" vertex="1" parent="1">
          <mxGeometry x="600" width="190" height="30" as="geometry" />
        </mxCell>
        <mxCell id="KM6Y3mVUqvjQru7paMrh-5" value="" style="endArrow=none;dashed=1;html=1;rounded=0;" edge="1" parent="1" source="KM6Y3mVUqvjQru7paMrh-9">
          <mxGeometry width="50" height="50" relative="1" as="geometry">
            <mxPoint x="100" y="750" as="sourcePoint" />
            <mxPoint x="100" y="40" as="targetPoint" />
          </mxGeometry>
        </mxCell>
        <mxCell id="KM6Y3mVUqvjQru7paMrh-6" value="" style="endArrow=none;dashed=1;html=1;rounded=0;" edge="1" parent="1" source="KM6Y3mVUqvjQru7paMrh-16">
          <mxGeometry width="50" height="50" relative="1" as="geometry">
            <mxPoint x="299.5" y="750" as="sourcePoint" />
            <mxPoint x="299.5" y="40" as="targetPoint" />
          </mxGeometry>
        </mxCell>
        <mxCell id="KM6Y3mVUqvjQru7paMrh-7" value="" style="endArrow=none;dashed=1;html=1;rounded=0;" edge="1" parent="1" source="KM6Y3mVUqvjQru7paMrh-21">
          <mxGeometry width="50" height="50" relative="1" as="geometry">
            <mxPoint x="499.5" y="750" as="sourcePoint" />
            <mxPoint x="499.5" y="40" as="targetPoint" />
          </mxGeometry>
        </mxCell>
        <mxCell id="KM6Y3mVUqvjQru7paMrh-8" value="" style="endArrow=none;dashed=1;html=1;rounded=0;" edge="1" parent="1">
          <mxGeometry width="50" height="50" relative="1" as="geometry">
            <mxPoint x="699.5" y="1110" as="sourcePoint" />
            <mxPoint x="699.5" y="400" as="targetPoint" />
          </mxGeometry>
        </mxCell>
        <mxCell id="KM6Y3mVUqvjQru7paMrh-10" value="" style="endArrow=none;dashed=1;html=1;rounded=0;" edge="1" parent="1" target="KM6Y3mVUqvjQru7paMrh-9">
          <mxGeometry width="50" height="50" relative="1" as="geometry">
            <mxPoint x="100" y="750" as="sourcePoint" />
            <mxPoint x="100" y="40" as="targetPoint" />
          </mxGeometry>
        </mxCell>
        <mxCell id="KM6Y3mVUqvjQru7paMrh-9" value="" style="rounded=0;whiteSpace=wrap;html=1;" vertex="1" parent="1">
          <mxGeometry x="80" y="80" width="40" height="80" as="geometry" />
        </mxCell>
        <mxCell id="KM6Y3mVUqvjQru7paMrh-13" style="edgeStyle=orthogonalEdgeStyle;rounded=0;orthogonalLoop=1;jettySize=auto;html=1;exitX=1;exitY=0.25;exitDx=0;exitDy=0;entryX=1;entryY=0.75;entryDx=0;entryDy=0;" edge="1" parent="1" source="KM6Y3mVUqvjQru7paMrh-9" target="KM6Y3mVUqvjQru7paMrh-9">
          <mxGeometry relative="1" as="geometry" />
        </mxCell>
        <mxCell id="KM6Y3mVUqvjQru7paMrh-14" value="&lt;font style=&quot;font-size: 10px;&quot;&gt;[u.saldo &amp;lt;= 0] : u.doladuj_konto(kwota : float) &lt;/font&gt;" style="text;html=1;align=center;verticalAlign=middle;whiteSpace=wrap;rounded=0;" vertex="1" parent="1">
          <mxGeometry x="120" y="60" width="110" height="40" as="geometry" />
        </mxCell>
        <mxCell id="KM6Y3mVUqvjQru7paMrh-17" value="" style="endArrow=none;dashed=1;html=1;rounded=0;" edge="1" parent="1" target="KM6Y3mVUqvjQru7paMrh-16">
          <mxGeometry width="50" height="50" relative="1" as="geometry">
            <mxPoint x="299.5" y="750" as="sourcePoint" />
            <mxPoint x="299.5" y="40" as="targetPoint" />
          </mxGeometry>
        </mxCell>
        <mxCell id="KM6Y3mVUqvjQru7paMrh-23" style="edgeStyle=orthogonalEdgeStyle;rounded=0;orthogonalLoop=1;jettySize=auto;html=1;entryX=0;entryY=0.25;entryDx=0;entryDy=0;" edge="1" parent="1" source="KM6Y3mVUqvjQru7paMrh-16" target="KM6Y3mVUqvjQru7paMrh-21">
          <mxGeometry relative="1" as="geometry" />
        </mxCell>
        <mxCell id="KM6Y3mVUqvjQru7paMrh-16" value="" style="rounded=0;whiteSpace=wrap;html=1;" vertex="1" parent="1">
          <mxGeometry x="280" y="200" width="40" height="200" as="geometry" />
        </mxCell>
        <mxCell id="KM6Y3mVUqvjQru7paMrh-18" value="" style="endArrow=classic;html=1;rounded=0;" edge="1" parent="1">
          <mxGeometry width="50" height="50" relative="1" as="geometry">
            <mxPoint x="100" y="240" as="sourcePoint" />
            <mxPoint x="280" y="240" as="targetPoint" />
          </mxGeometry>
        </mxCell>
        <mxCell id="KM6Y3mVUqvjQru7paMrh-19" value="" style="endArrow=classic;html=1;rounded=0;exitX=0;exitY=0.75;exitDx=0;exitDy=0;dashed=1;" edge="1" parent="1">
          <mxGeometry width="50" height="50" relative="1" as="geometry">
            <mxPoint x="280" y="360.0000000000001" as="sourcePoint" />
            <mxPoint x="100" y="360" as="targetPoint" />
          </mxGeometry>
        </mxCell>
        <mxCell id="KM6Y3mVUqvjQru7paMrh-20" value="&lt;font&gt;znajdz_pobliski_rower(wykaz_rowerow:Wykaz Rowerów,lokacja:gps coordinates) : list of *Rower&lt;br&gt;&lt;/font&gt;" style="text;html=1;align=center;verticalAlign=middle;whiteSpace=wrap;rounded=0;fontSize=8;" vertex="1" parent="1">
          <mxGeometry x="110" y="210" width="160" height="30" as="geometry" />
        </mxCell>
        <mxCell id="KM6Y3mVUqvjQru7paMrh-22" value="" style="endArrow=none;dashed=1;html=1;rounded=0;" edge="1" parent="1" target="KM6Y3mVUqvjQru7paMrh-21">
          <mxGeometry width="50" height="50" relative="1" as="geometry">
            <mxPoint x="499.5" y="750" as="sourcePoint" />
            <mxPoint x="499.5" y="40" as="targetPoint" />
          </mxGeometry>
        </mxCell>
        <mxCell id="KM6Y3mVUqvjQru7paMrh-21" value="" style="rounded=0;whiteSpace=wrap;html=1;" vertex="1" parent="1">
          <mxGeometry x="480" y="280" width="40" height="80" as="geometry" />
        </mxCell>
        <mxCell id="KM6Y3mVUqvjQru7paMrh-24" style="edgeStyle=orthogonalEdgeStyle;rounded=0;orthogonalLoop=1;jettySize=auto;html=1;exitX=0;exitY=0.75;exitDx=0;exitDy=0;entryX=0.917;entryY=0.701;entryDx=0;entryDy=0;entryPerimeter=0;dashed=1;" edge="1" parent="1" source="KM6Y3mVUqvjQru7paMrh-21" target="KM6Y3mVUqvjQru7paMrh-16">
          <mxGeometry relative="1" as="geometry" />
        </mxCell>
        <mxCell id="KM6Y3mVUqvjQru7paMrh-25" value="&lt;font&gt;znajdz_rower(lokacja:gps coordinates) : *Rower&lt;br&gt;&lt;/font&gt;" style="text;html=1;align=center;verticalAlign=middle;whiteSpace=wrap;rounded=0;fontSize=8;" vertex="1" parent="1">
          <mxGeometry x="330" y="260" width="140" height="30" as="geometry" />
        </mxCell>
      </root>
    </mxGraphModel>
  </diagram>
</mxfile>
